<svg xmlns="http://www.w3.org/2000/svg" id="Camada_1" version="1.1" viewBox="0 0 249.7 69.3"><defs><style>.st1{isolation:isolate;fill-rule:evenodd}.st1,.st3{fill:#fff}</style></defs><path d="M90.9 59.7v-4.1h.6v4.1c0 1.7.9 2.3 2 2.3s2-.6 2-2.3v-4.1h.6v4.1c0 1.9-1.1 2.8-2.5 2.8s-2.5-.9-2.5-2.8Zm8.5 2.7v-6.9h.9l2.4 6.2 2.4-6.2h.9v6.9h-.6v-6.2l-2.4 6.2h-.6l-2.4-6.2v6.2h-.6Zm14.5 0-.6-1.7h-3.5l-.6 1.7h-.6l2.5-6.9h.8l2.6 6.9h-.6Zm-3.8-2.2h3.1l-1.5-4.1-1.5 4.1Zm11.4 2.2v-6.9h4.4v.5h-3.8v2.5h3.4v.5h-3.4v2.7h3.8v.5h-4.4Zm7.5 0v-6.9h.9l2.4 6.2 2.4-6.2h.9v6.9h-.6v-6.2l-2.4 6.2h-.6l-2.4-6.2v6.2h-.6Zm9.9 0v-6.9h2.4c1.4 0 2.3.8 2.3 2.1s-.9 2.1-2.3 2.1h-1.8v2.7h-.6Zm.6-3.3h1.7c1.1 0 1.7-.5 1.7-1.5s-.6-1.5-1.7-1.5h-1.7v3Zm6.9 3.3v-6.9h2.6c1.2 0 2.1.8 2.1 2s-.6 1.7-1.5 1.9l1.6 2.9h-.7l-1.5-2.9h-2v2.9h-.6Zm.6-3.4h2c.9 0 1.5-.5 1.5-1.5s-.6-1.5-1.5-1.5h-2v2.9Zm7.2 3.4v-6.9h4.4v.5h-3.8v2.5h3.4v.5h-3.4v2.7h3.8v.5h-4.4Zm7.2-1.5.5-.2c.4.9 1.2 1.3 2.1 1.3s1.7-.5 1.7-1.3c0-2-4.1-1-4.1-3.5s.9-1.7 2.2-1.7 2 .5 2.3 1.5l-.5.2c-.3-.8-1-1.2-1.8-1.2s-1.6.5-1.6 1.2c0 2 4.1.9 4.1 3.5s-.9 1.8-2.3 1.8-2.2-.6-2.6-1.6Zm12.5 1.5-.6-1.7h-3.5l-.6 1.7h-.6l2.5-6.9h.8l2.6 6.9h-.6Zm-3.8-2.2h3.1l-1.5-4.1-1.5 4.1Zm15.8 2.2-.5-1.5h-3l-.5 1.5h-1.1l2.4-6.9h1.5l2.4 6.9h-1.2Zm-3.2-2.4h2.4l-1.2-3.5-1.2 3.5Zm7 2.4v-6.9h1.1v5.9h3.4v1h-4.5Zm6.8-3.4c0-2.1 1.3-3.5 3.2-3.5s3.1 1.4 3.1 3.5-1.3 3.5-3.1 3.5-3.2-1.4-3.2-3.5Zm5.2 0c0-1.6-.8-2.6-2-2.6s-2 1-2 2.6.8 2.6 2 2.6 2-1 2-2.6Zm3.9 3.4v-6.9h2.7c1.4 0 2.3.8 2.3 2.1s-.5 1.7-1.4 1.9l1.5 2.8h-1.3l-1.3-2.6h-1.5v2.6h-1.1Zm1.2-3.6h1.6c.8 0 1.3-.4 1.3-1.2s-.5-1.2-1.3-1.2h-1.6v2.4Zm11.5 3.6-.5-1.5h-3l-.5 1.5h-1.1l2.4-6.9h1.5l2.4 6.9h-1.2Zm-3.2-2.4h2.4l-1.2-3.5-1.2 3.5Zm10.8-1c0-2.1 1.2-3.5 3-3.5s2.1.5 2.6 1.8l-.5.2c-.4-1-1.2-1.5-2.1-1.5-1.4 0-2.4 1.1-2.4 3s1 3 2.4 3 1.5-.3 2-.9v-1.7H229v-.6h2.4v2.4c-.6.8-1.5 1.2-2.6 1.2-1.9 0-3-1.5-3-3.5Zm8.4 0c0-2.1 1.2-3.5 3-3.5s2.9 1.4 2.9 3.5-1.2 3.5-2.9 3.5-3-1.5-3-3.5Zm5.4 0c0-1.9-1-3-2.4-3s-2.4 1.1-2.4 3 1 3 2.4 3 2.4-1.1 2.4-3Z" class="st3"/><path d="M146.4 26.2c0-.9.3-1.7.8-2.3.6-.6 1.3-.9 2.2-.9h2.3v-3.4c.2-2.8 1.5-4.3 4.2-4.3s3 1 3 3.1 0 2.1-.1 4.5h4c2.1 0 3.1 1 3.1 3.1s-.2 1.7-.7 2.3-1.1.9-2 .9h-4.4v8.4c0 2.8.8 4.1 2.4 4.1s.9 0 1.3-.2.8-.2 1-.2c.8 0 1.4.3 1.9.9s.7 1.3.7 2.1c0 1.5-.5 2.6-1.4 3.1-1 .6-2.6.9-4.7.9-5.7 0-8.6-3.4-8.6-10.1v-9.1h-2.5c-1.8 0-2.8-1.1-2.8-3.3ZM195.6 39c0 1.4 0 3.5.2 6.3 0 2.1-1.3 3.1-3.9 3.1s-1.6-.3-2.1-.9c-.5-.6-.9-1.6-1.2-2.9-1.6 2.7-4 4-7.4 4s-6.6-1.2-8.8-3.5c-2.2-2.4-3.4-5.3-3.4-8.9s1.2-7.3 3.7-9.9 5.5-3.8 9.2-3.8 5.3 1.1 6.8 3.4c.1-.7.3-1.3.5-1.7.6-1 1.5-1.5 2.9-1.5 2.4 0 3.5 1.2 3.5 3.6v4.3l-.1 8.3Zm-17.3 1.5c1.1 1.2 2.4 1.8 3.9 1.8s3.2-.6 4.4-1.8c1.2-1.2 1.8-2.8 1.8-4.8s-.6-3.6-1.7-4.8-2.5-1.8-4.1-1.8-3.1.6-4.2 1.9c-1.1 1.3-1.6 3-1.6 5.1s.5 3.2 1.6 4.4Zm25.4-31.2c.7-.6 1.7-.9 2.8-.9s2.3.3 2.9.9c.7.6 1 1.6 1 2.8-.1 7.8-.2 16.5-.2 26.3V45c0 1.1-.3 2-.8 2.5s-1.4.9-2.8 1c-2.8.3-4.2-1.5-4.3-5.1-.1-5.4-.1-15.9 0-31.5 0-1.1.4-2 1.1-2.6ZM239 42.9c.6.7.9 1.4.9 2.1s-.4 1.6-1.2 2.4c-.8.8-1.7 1.1-2.7 1.1s-2-.6-3-1.9l-6.6-8.3-1.9 1.8v5c-.1 2.3-1.3 3.4-3.7 3.4s-2.1-.3-2.8-1c-.7-.6-1-1.6-1-2.7v-5.6c.1 0 .1-24.2.1-24.2v-3.7c0-1 .3-1.8 1.1-2.4.8-.6 1.7-.9 2.7-.9 2.5 0 3.8 1.1 3.8 3.3V23c0 5.1-.1 8.2-.1 9.3l8-8.2c1.1-1.1 2.1-1.6 3-1.6s1.7.4 2.5 1.2c.8.8 1.2 1.6 1.2 2.5s-.4 1.5-1.1 2.3-1.8 1.8-3.4 3.2c-1.6 1.5-2.6 2.4-3.1 2.9l7.4 8.4Z" class="st3" style="isolation:isolate"/><path d="M90 22.7v-3.4c0-3.6.8-6.6 2.5-9 1.7-2.3 4.5-3.5 8.3-3.5s2.4.2 3.3.7c.7.3 1 .9 1 1.8s-.1.9-.4 1.3c-.3.4-.7.6-1.2.6s-1 0-1.9-.2-1.5-.2-2-.2c-1.7 0-3 .8-3.9 2.4s-1.4 3.4-1.4 5.5v3.8h6c1.6 0 2.4.7 2.4 2.1s-.7 2.1-2 2.1h-6.3v19.5c0 1.3-.7 2-2.3 2s-2.3-.8-2.3-2.5V26.6m17.9-3.8c.4-.4 1-.5 1.6-.5.9 0 1.5.2 1.8.7.4.5.6 1.3.6 2.6V46c0 .9-.2 1.5-.5 1.9-.4.4-1 .6-1.8.6-1.5 0-2.3-.8-2.3-2.3V24.6c0-.8.3-1.4.7-1.7Zm11.8 2.5c0-1 .2-1.8.5-2.3s1-.7 1.9-.7 1.3.2 1.6.6.5 1.1.5 2v2.5c.8-1.7 2-3 3.6-4s3.5-1.4 5.4-1.4c3.1 0 5.4 1 7.1 2.9s2.5 4.7 2.5 8.1v12.4c0 1-.2 1.7-.6 2.1s-1 .7-2 .7c-1.5 0-2.2-.7-2.2-2.1s0-2.8.1-5.5v-6.2c0-5.4-2.1-8.1-6-8.2-1.3 0-2.5.2-3.4.6s-1.7.9-2.3 1.6-1 1.4-1.3 2.4c-.3 1-.6 1.9-.7 2.9s-.2 2-.2 3.2v9.4c0 1.4-.8 2.1-2.4 2.1s-2.2-.7-2.2-2.1v-21h-.1Z" style="fill:#fff;isolation:isolate"/><path d="M52.3 3.7c7.4 1.9 13.6 6 18.4 12.4 2.9 3.7 5 7.9 6.1 12.5.7 3.1 1 6.2.8 9.4-.4 5.9-2.7 11.6-6.5 16.1-4.1 4.9-9.3 7.8-15.5 8.7-6 .9-12.3-.1-17.6-3.1-5.5-3-9.4-7.6-11.6-13.6-1.4-3.7-1.9-7.6-1.8-11.5v-1.7c0-1 .4-1.9 1-2.7.8-.9 1.8-1.2 3.1-1.1 1.1.1 2.1.7 2.8 1.6.1.2.2.3.2.6.2 2.5.5 5 .8 7.5.4 3 1.4 6 3.1 8.5 2 3 4.6 5.2 7.8 6.6 4.5 2 9.6 2 14.3.3 5.1-1.8 8.7-5.3 10.6-10.3 1.6-4.1 1.8-8.6.8-12.8-1.7-7.6-5.9-13.3-12.4-16.9-5.2-2.9-11.1-4-17-3.3-9.3 1.2-16.2 6.6-20.8 16.3-3.8 11.7-1.2 21.8 7.9 30.2l-8.7 8.7c-.5.5-1.1.8-1.8.8-.8 0-1.4-.4-1.7-1.2-.2-.5-.3-1.1-.2-1.7.4-2.3.9-4.5 1.4-6.8-6.2-9.7-8-19.4-5.2-29.2 2.1-7.5 6.5-14.1 12.7-18.7 1-.7 1.9-1.3 2.9-1.9C34 2.8 43.3 1.7 52.1 3.9Z" class="st1"/><path d="M57 25.7c1.8-.2 3.2.5 4 2.1.2.4.4.9.4 1.3.1 2.8.1 5.6 0 8.5 0 .5-.2 1.1-.5 1.5-1.3 2-3.1 2.4-5.4 1.3-.4-.2-.7-.5-1-.9l-.1-.1c-.3-.5-.5-1-.6-1.6-.1-3-.1-5.9 0-8.9 0-.6.2-1.1.5-1.6.3-.4.6-.8 1-1.1.4-.4 1-.6 1.6-.6Zm-13.9.1c1.1.2 2 .7 2.7 1.8.4.5.5 1.2.6 1.8.1 2.7.1 5.5 0 8.2 0 .6-.2 1.3-.6 1.8-.8 1.3-2 1.9-3.6 1.7-.7 0-1.5-.4-2-.9l-.6-.6c-.5-.6-.7-1.3-.7-2.1-.1-2.7-.1-5.4 0-8.2 0-.7.3-1.4.7-2 .8-1.1 2.2-1.8 3.6-1.6Z" class="st1"/></svg>